<svg width="159" height="36" viewBox="0 0 159 36" fill="none" xmlns="http://www.w3.org/2000/svg">
<circle cx="4.07299" cy="15.1095" r="4.07299" fill="#EDD5F2"/>
<circle cx="17.2117" cy="23.2555" r="4.07299" fill="#EDD5F2"/>
<circle cx="30.3504" cy="15.1095" r="4.07299" fill="#EDD5F2"/>
<rect x="2.62774" y="17.8686" width="3.15328" height="18.1314" fill="#EDD5F2"/>
<rect x="28.9051" y="17.8686" width="3.15328" height="18.1314" fill="#EDD5F2"/>
<rect x="15.7664" width="3.15328" height="17.8686" fill="#EDD5F2"/>
<rect x="2.62774" width="3.15328" height="9.72263" fill="#EDD5F2"/>
<rect x="28.9051" width="3.15328" height="9.72263" fill="#EDD5F2"/>
<rect x="15.7664" y="26.0146" width="3.15328" height="9.9854" fill="#EDD5F2"/>
<path d="M52.22 23.04C52.22 23.88 52.0133 24.6133 51.6 25.24C51.1867 25.8667 50.5867 26.3533 49.8 26.7C49.0267 27.0333 48.08 27.2 46.96 27.2C46.4667 27.2 45.98 27.1667 45.5 27.1C45.0333 27.0333 44.58 26.94 44.14 26.82C43.7133 26.6867 43.3067 26.5267 42.92 26.34V23.52C43.6 23.8133 44.3 24.0867 45.02 24.34C45.7533 24.58 46.48 24.7 47.2 24.7C47.6933 24.7 48.0867 24.6333 48.38 24.5C48.6867 24.3667 48.9067 24.1867 49.04 23.96C49.1867 23.7333 49.26 23.4733 49.26 23.18C49.26 22.82 49.1333 22.5133 48.88 22.26C48.64 22.0067 48.3133 21.7733 47.9 21.56C47.4867 21.3333 47.0133 21.0933 46.48 20.84C46.1467 20.68 45.7867 20.4933 45.4 20.28C45.0133 20.0533 44.64 19.78 44.28 19.46C43.9333 19.1267 43.6467 18.7267 43.42 18.26C43.1933 17.7933 43.08 17.2333 43.08 16.58C43.08 15.7267 43.2733 15 43.66 14.4C44.06 13.7867 44.62 13.32 45.34 13C46.0733 12.68 46.9333 12.52 47.92 12.52C48.6667 12.52 49.3733 12.6067 50.04 12.78C50.72 12.9533 51.4267 13.2 52.16 13.52L51.18 15.88C50.5267 15.6133 49.94 15.4067 49.42 15.26C48.9 15.1133 48.3667 15.04 47.82 15.04C47.4467 15.04 47.1267 15.1 46.86 15.22C46.5933 15.34 46.3867 15.5067 46.24 15.72C46.1067 15.9333 46.04 16.1867 46.04 16.48C46.04 16.8133 46.14 17.1 46.34 17.34C46.54 17.5667 46.84 17.7867 47.24 18C47.64 18.2133 48.14 18.4667 48.74 18.76C49.4733 19.1067 50.0933 19.4667 50.6 19.84C51.12 20.2133 51.52 20.6533 51.8 21.16C52.08 21.6667 52.22 22.2933 52.22 23.04ZM64.4956 21.52C64.4956 22.4267 64.369 23.2333 64.1156 23.94C63.8756 24.6467 63.5223 25.2467 63.0556 25.74C62.6023 26.22 62.049 26.5867 61.3956 26.84C60.7423 27.08 60.0023 27.2 59.1756 27.2C58.4156 27.2 57.709 27.08 57.0556 26.84C56.4156 26.5867 55.8623 26.22 55.3956 25.74C54.929 25.2467 54.5623 24.6467 54.2956 23.94C54.0423 23.2333 53.9156 22.4267 53.9156 21.52C53.9156 20.3067 54.129 19.2867 54.5556 18.46C54.9823 17.62 55.5956 16.98 56.3956 16.54C57.1956 16.1 58.1423 15.88 59.2356 15.88C60.2623 15.88 61.169 16.1 61.9556 16.54C62.7423 16.98 63.3623 17.62 63.8156 18.46C64.269 19.2867 64.4956 20.3067 64.4956 21.52ZM56.9556 21.52C56.9556 22.24 57.029 22.8467 57.1756 23.34C57.3356 23.82 57.5823 24.1867 57.9156 24.44C58.249 24.68 58.6823 24.8 59.2156 24.8C59.749 24.8 60.1756 24.68 60.4956 24.44C60.829 24.1867 61.069 23.82 61.2156 23.34C61.3756 22.8467 61.4556 22.24 61.4556 21.52C61.4556 20.8 61.3756 20.2 61.2156 19.72C61.069 19.24 60.829 18.88 60.4956 18.64C60.1623 18.4 59.729 18.28 59.1956 18.28C58.409 18.28 57.8356 18.5533 57.4756 19.1C57.129 19.6333 56.9556 20.44 56.9556 21.52ZM76.9784 16.08V27H74.6984L74.2984 25.6H74.1384C73.9118 25.9733 73.6184 26.28 73.2584 26.52C72.9118 26.7467 72.5251 26.9133 72.0984 27.02C71.6718 27.14 71.2318 27.2 70.7784 27.2C70.0051 27.2 69.3251 27.06 68.7384 26.78C68.1518 26.5 67.6984 26.0667 67.3784 25.48C67.0584 24.8933 66.8984 24.1333 66.8984 23.2V16.08H69.8784V22.46C69.8784 23.2333 70.0184 23.82 70.2984 24.22C70.5784 24.62 71.0251 24.82 71.6384 24.82C72.2518 24.82 72.7251 24.68 73.0584 24.4C73.4051 24.12 73.6451 23.7133 73.7784 23.18C73.9251 22.6467 73.9984 21.9933 73.9984 21.22V16.08H76.9784ZM86.303 15.88C87.4763 15.88 88.4163 16.2 89.123 16.84C89.8296 17.4667 90.183 18.48 90.183 19.88V27H87.203V20.62C87.203 19.8333 87.063 19.2467 86.783 18.86C86.503 18.46 86.0563 18.26 85.443 18.26C84.5363 18.26 83.9163 18.5733 83.583 19.2C83.2496 19.8133 83.083 20.7 83.083 21.86V27H80.103V16.08H82.383L82.783 17.48H82.943C83.183 17.1067 83.4763 16.8067 83.823 16.58C84.1696 16.34 84.5563 16.1667 84.983 16.06C85.4096 15.94 85.8496 15.88 86.303 15.88ZM96.7075 27.2C95.4942 27.2 94.5008 26.7267 93.7275 25.78C92.9675 24.82 92.5875 23.4133 92.5875 21.56C92.5875 19.6933 92.9742 18.28 93.7475 17.32C94.5208 16.36 95.5342 15.88 96.7875 15.88C97.3075 15.88 97.7675 15.9533 98.1675 16.1C98.5675 16.2333 98.9075 16.42 99.1875 16.66C99.4808 16.9 99.7275 17.1733 99.9275 17.48H100.028C99.9875 17.2667 99.9408 16.96 99.8875 16.56C99.8342 16.1467 99.8075 15.7267 99.8075 15.3V11.8H102.788V27H100.508L99.9275 25.58H99.8075C99.6208 25.8733 99.3808 26.1467 99.0875 26.4C98.8075 26.64 98.4742 26.8333 98.0875 26.98C97.7008 27.1267 97.2408 27.2 96.7075 27.2ZM97.7475 24.82C98.5742 24.82 99.1542 24.58 99.4875 24.1C99.8208 23.6067 99.9942 22.8733 100.008 21.9V21.58C100.008 20.5133 99.8408 19.7 99.5075 19.14C99.1875 18.58 98.5875 18.3 97.7075 18.3C97.0542 18.3 96.5408 18.5867 96.1675 19.16C95.7942 19.72 95.6075 20.5333 95.6075 21.6C95.6075 22.6667 95.7942 23.4733 96.1675 24.02C96.5408 24.5533 97.0675 24.82 97.7475 24.82ZM123.684 12.72L120.044 27H116.604L114.664 19.5C114.624 19.3533 114.57 19.1333 114.504 18.84C114.45 18.5467 114.384 18.2267 114.304 17.88C114.237 17.5333 114.177 17.2067 114.124 16.9C114.07 16.58 114.03 16.3333 114.004 16.16C113.99 16.3333 113.95 16.58 113.884 16.9C113.83 17.2067 113.77 17.5333 113.704 17.88C113.637 18.2133 113.57 18.5333 113.504 18.84C113.437 19.1333 113.384 19.36 113.344 19.52L111.424 27H107.984L104.344 12.72H107.324L109.144 20.52C109.197 20.7467 109.257 21.0267 109.324 21.36C109.39 21.68 109.457 22.02 109.524 22.38C109.59 22.7267 109.65 23.0667 109.704 23.4C109.77 23.7333 109.817 24.02 109.844 24.26C109.87 24.0067 109.91 23.72 109.964 23.4C110.017 23.0667 110.077 22.7333 110.144 22.4C110.21 22.0533 110.27 21.7333 110.324 21.44C110.39 21.1333 110.45 20.8933 110.504 20.72L112.584 12.72H115.444L117.524 20.72C117.564 20.8933 117.617 21.1333 117.684 21.44C117.75 21.7333 117.817 22.0533 117.884 22.4C117.95 22.7467 118.01 23.0867 118.064 23.42C118.117 23.74 118.157 24.02 118.184 24.26C118.224 23.9267 118.284 23.5333 118.364 23.08C118.444 22.6133 118.53 22.1467 118.624 21.68C118.73 21.2133 118.817 20.8267 118.884 20.52L120.704 12.72H123.684ZM129.329 15.86C130.796 15.86 131.916 16.18 132.689 16.82C133.476 17.4467 133.869 18.4133 133.869 19.72V27H131.789L131.209 25.52H131.129C130.822 25.9067 130.502 26.2267 130.169 26.48C129.849 26.7333 129.476 26.9133 129.049 27.02C128.636 27.14 128.122 27.2 127.509 27.2C126.869 27.2 126.289 27.08 125.769 26.84C125.262 26.5867 124.862 26.2067 124.569 25.7C124.276 25.18 124.129 24.5267 124.129 23.74C124.129 22.58 124.536 21.7267 125.349 21.18C126.162 20.62 127.382 20.3133 129.009 20.26L130.909 20.2V19.72C130.909 19.1467 130.756 18.7267 130.449 18.46C130.156 18.1933 129.742 18.06 129.209 18.06C128.676 18.06 128.156 18.14 127.649 18.3C127.142 18.4467 126.636 18.6333 126.129 18.86L125.149 16.84C125.736 16.5333 126.382 16.2933 127.089 16.12C127.809 15.9467 128.556 15.86 129.329 15.86ZM129.749 21.98C128.789 22.0067 128.122 22.18 127.749 22.5C127.376 22.82 127.189 23.24 127.189 23.76C127.189 24.2133 127.322 24.54 127.589 24.74C127.856 24.9267 128.202 25.02 128.629 25.02C129.269 25.02 129.809 24.8333 130.249 24.46C130.689 24.0733 130.909 23.5333 130.909 22.84V21.94L129.749 21.98ZM139.519 27L135.359 16.08H138.479L140.579 22.3C140.659 22.54 140.726 22.7933 140.779 23.06C140.846 23.3267 140.893 23.5867 140.919 23.84C140.959 24.0933 140.986 24.3267 140.999 24.54H141.079C141.093 24.3133 141.119 24.0733 141.159 23.82C141.199 23.5667 141.246 23.3133 141.299 23.06C141.366 22.7933 141.439 22.54 141.519 22.3L143.619 16.08H146.739L142.579 27H139.519ZM152.806 15.88C153.819 15.88 154.686 16.0733 155.406 16.46C156.139 16.8467 156.706 17.4067 157.106 18.14C157.506 18.8733 157.706 19.7733 157.706 20.84V22.28H150.666C150.693 23.12 150.939 23.78 151.406 24.26C151.886 24.74 152.546 24.98 153.386 24.98C154.093 24.98 154.733 24.9133 155.306 24.78C155.879 24.6333 156.473 24.4133 157.086 24.12V26.42C156.553 26.6867 155.986 26.88 155.386 27C154.799 27.1333 154.086 27.2 153.246 27.2C152.153 27.2 151.186 27 150.346 26.6C149.506 26.1867 148.846 25.5667 148.366 24.74C147.886 23.9133 147.646 22.8733 147.646 21.62C147.646 20.34 147.859 19.28 148.286 18.44C148.726 17.5867 149.333 16.9467 150.106 16.52C150.879 16.0933 151.779 15.88 152.806 15.88ZM152.826 18C152.253 18 151.773 18.1867 151.386 18.56C151.013 18.9333 150.793 19.5133 150.726 20.3H154.906C154.906 19.86 154.826 19.4667 154.666 19.12C154.519 18.7733 154.293 18.5 153.986 18.3C153.679 18.1 153.293 18 152.826 18Z" fill="#EDD5F2"/>
</svg>
